<svg width="134" height="95" viewBox="0 0 134 95" fill="none" xmlns="http://www.w3.org/2000/svg">
<path d="M8.25615 0.146447C8.45141 0.341709 8.45141 0.658291 8.25615 0.853553L0.853553 8.25615C0.658291 8.45141 0.341709 8.45141 0.146447 8.25615C-0.0488155 8.06089 -0.0488155 7.74431 0.146447 7.54904L7.54904 0.146447C7.74431 -0.0488155 8.06089 -0.0488155 8.25615 0.146447Z" fill="url(#paint0_linear_11_1199)"/>
<path d="M8.25615 17.4192C8.45141 17.6144 8.45141 17.931 8.25615 18.1263L0.853553 25.5289C0.658291 25.7241 0.341709 25.7241 0.146447 25.5289C-0.0488155 25.3336 -0.0488155 25.017 0.146447 24.8218L7.54904 17.4192C7.74431 17.2239 8.06089 17.2239 8.25615 17.4192Z" fill="url(#paint1_linear_11_1199)"/>
<path d="M8.25615 35.399C8.45141 35.2037 8.45141 34.8872 8.25615 34.6919C8.06089 34.4966 7.74431 34.4966 7.54904 34.6919L0.146447 42.0945C-0.0488155 42.2898 -0.0488155 42.6063 0.146447 42.8016C0.341709 42.9969 0.658291 42.9969 0.853553 42.8016L8.25615 35.399Z" fill="url(#paint2_linear_11_1199)"/>
<path d="M8.25615 51.9646C8.45141 52.1599 8.45141 52.4765 8.25615 52.6717L0.853553 60.0743C0.658291 60.2696 0.341709 60.2696 0.146447 60.0743C-0.0488155 59.8791 -0.0488155 59.5625 0.146447 59.3672L7.54904 51.9646C7.74431 51.7694 8.06089 51.7694 8.25615 51.9646Z" fill="url(#paint3_linear_11_1199)"/>
<path d="M8.25615 69.9445C8.45141 69.7492 8.45141 69.4326 8.25615 69.2374C8.06089 69.0421 7.74431 69.0421 7.54904 69.2374L0.146447 76.64C-0.0488155 76.8352 -0.0488155 77.1518 0.146447 77.3471C0.341709 77.5423 0.658291 77.5423 0.853553 77.3471L8.25615 69.9445Z" fill="url(#paint4_linear_11_1199)"/>
<path d="M8.25615 86.5101C8.45141 86.7053 8.45141 87.0219 8.25615 87.2172L0.853553 94.6198C0.658291 94.8151 0.341709 94.8151 0.146447 94.6198C-0.0488155 94.4245 -0.0488155 94.1079 0.146447 93.9127L7.54904 86.5101C7.74431 86.3148 8.06089 86.3148 8.25615 86.5101Z" fill="url(#paint5_linear_11_1199)"/>
<path d="M26.1457 0.853553C26.341 0.658291 26.341 0.341709 26.1457 0.146447C25.9505 -0.0488155 25.6339 -0.0488155 25.4386 0.146447L18.036 7.54904C17.8408 7.74431 17.8408 8.06089 18.036 8.25615C18.2313 8.45141 18.5479 8.45141 18.7431 8.25615L26.1457 0.853553Z" fill="url(#paint6_linear_11_1199)"/>
<path d="M26.1457 18.1263C26.341 17.931 26.341 17.6144 26.1457 17.4192C25.9505 17.2239 25.6339 17.2239 25.4386 17.4192L18.036 24.8218C17.8408 25.017 17.8408 25.3336 18.036 25.5289C18.2313 25.7241 18.5479 25.7241 18.7431 25.5289L26.1457 18.1263Z" fill="url(#paint7_linear_11_1199)"/>
<path d="M26.1457 34.6919C26.341 34.8872 26.341 35.2037 26.1457 35.399L18.7431 42.8016C18.5479 42.9969 18.2313 42.9969 18.036 42.8016C17.8408 42.6063 17.8408 42.2898 18.036 42.0945L25.4386 34.6919C25.6339 34.4966 25.9505 34.4966 26.1457 34.6919Z" fill="url(#paint8_linear_11_1199)"/>
<path d="M26.1457 52.6717C26.341 52.4765 26.341 52.1599 26.1457 51.9646C25.9505 51.7694 25.6339 51.7694 25.4386 51.9646L18.036 59.3672C17.8408 59.5625 17.8408 59.8791 18.036 60.0743C18.2313 60.2696 18.5479 60.2696 18.7431 60.0743L26.1457 52.6717Z" fill="url(#paint9_linear_11_1199)"/>
<path d="M26.1457 69.2374C26.341 69.4326 26.341 69.7492 26.1457 69.9445L18.7431 77.3471C18.5479 77.5423 18.2313 77.5423 18.036 77.3471C17.8408 77.1518 17.8408 76.8352 18.036 76.64L25.4386 69.2374C25.6339 69.0421 25.9505 69.0421 26.1457 69.2374Z" fill="url(#paint10_linear_11_1199)"/>
<path d="M26.1457 87.2172C26.341 87.0219 26.341 86.7053 26.1457 86.5101C25.9505 86.3148 25.6339 86.3148 25.4386 86.5101L18.036 93.9127C17.8408 94.1079 17.8408 94.4245 18.036 94.6198C18.2313 94.8151 18.5479 94.8151 18.7431 94.6198L26.1457 87.2172Z" fill="url(#paint11_linear_11_1199)"/>
<path d="M44.0353 0.146447C44.2306 0.341709 44.2306 0.658291 44.0353 0.853553L36.6327 8.25615C36.4374 8.45141 36.1209 8.45141 35.9256 8.25615C35.7303 8.06089 35.7303 7.74431 35.9256 7.54904L43.3282 0.146447C43.5234 -0.0488155 43.84 -0.0488155 44.0353 0.146447Z" fill="url(#paint12_linear_11_1199)"/>
<path d="M44.0353 17.4192C44.2306 17.6144 44.2306 17.931 44.0353 18.1263L36.6327 25.5289C36.4374 25.7241 36.1209 25.7241 35.9256 25.5289C35.7303 25.3336 35.7303 25.017 35.9256 24.8218L43.3282 17.4192C43.5234 17.2239 43.84 17.2239 44.0353 17.4192Z" fill="url(#paint13_linear_11_1199)"/>
<path d="M44.0353 35.399C44.2306 35.2037 44.2306 34.8872 44.0353 34.6919C43.84 34.4966 43.5234 34.4966 43.3282 34.6919L35.9256 42.0945C35.7303 42.2898 35.7303 42.6063 35.9256 42.8016C36.1209 42.9969 36.4374 42.9969 36.6327 42.8016L44.0353 35.399Z" fill="url(#paint14_linear_11_1199)"/>
<path d="M44.0353 51.9646C44.2306 52.1599 44.2306 52.4765 44.0353 52.6717L36.6327 60.0743C36.4374 60.2696 36.1209 60.2696 35.9256 60.0743C35.7303 59.8791 35.7303 59.5625 35.9256 59.3672L43.3282 51.9646C43.5234 51.7694 43.84 51.7694 44.0353 51.9646Z" fill="url(#paint15_linear_11_1199)"/>
<path d="M44.0353 69.9445C44.2306 69.7492 44.2306 69.4326 44.0353 69.2374C43.84 69.0421 43.5234 69.0421 43.3282 69.2374L35.9256 76.64C35.7303 76.8352 35.7303 77.1518 35.9256 77.3471C36.1209 77.5423 36.4374 77.5423 36.6327 77.3471L44.0353 69.9445Z" fill="url(#paint16_linear_11_1199)"/>
<path d="M44.0353 86.5101C44.2306 86.7053 44.2306 87.0219 44.0353 87.2172L36.6327 94.6198C36.4374 94.8151 36.1209 94.8151 35.9256 94.6198C35.7303 94.4245 35.7303 94.1079 35.9256 93.9127L43.3282 86.5101C43.5234 86.3148 43.84 86.3148 44.0353 86.5101Z" fill="url(#paint17_linear_11_1199)"/>
<path d="M61.9249 0.853553C62.1201 0.658291 62.1201 0.341709 61.9249 0.146447C61.7296 -0.0488155 61.413 -0.0488155 61.2178 0.146447L53.8152 7.54904C53.6199 7.74431 53.6199 8.06089 53.8152 8.25615C54.0104 8.45141 54.327 8.45141 54.5223 8.25615L61.9249 0.853553Z" fill="url(#paint18_linear_11_1199)"/>
<path d="M61.9249 18.1263C62.1201 17.931 62.1201 17.6144 61.9249 17.4192C61.7296 17.2239 61.413 17.2239 61.2178 17.4192L53.8152 24.8218C53.6199 25.017 53.6199 25.3336 53.8152 25.5289C54.0104 25.7241 54.327 25.7241 54.5223 25.5289L61.9249 18.1263Z" fill="url(#paint19_linear_11_1199)"/>
<path d="M61.9249 34.6919C62.1201 34.8872 62.1201 35.2037 61.9249 35.399L54.5223 42.8016C54.327 42.9969 54.0104 42.9969 53.8152 42.8016C53.6199 42.6063 53.6199 42.2898 53.8152 42.0945L61.2178 34.6919C61.413 34.4966 61.7296 34.4966 61.9249 34.6919Z" fill="url(#paint20_linear_11_1199)"/>
<path d="M61.9249 52.6717C62.1201 52.4765 62.1201 52.1599 61.9249 51.9646C61.7296 51.7694 61.413 51.7694 61.2178 51.9646L53.8152 59.3672C53.6199 59.5625 53.6199 59.8791 53.8152 60.0743C54.0104 60.2696 54.327 60.2696 54.5223 60.0743L61.9249 52.6717Z" fill="url(#paint21_linear_11_1199)"/>
<path d="M61.9249 69.2374C62.1201 69.4326 62.1201 69.7492 61.9249 69.9445L54.5223 77.3471C54.327 77.5423 54.0104 77.5423 53.8152 77.3471C53.6199 77.1518 53.6199 76.8352 53.8152 76.64L61.2178 69.2374C61.413 69.0421 61.7296 69.0421 61.9249 69.2374Z" fill="url(#paint22_linear_11_1199)"/>
<path d="M61.9249 87.2172C62.1201 87.0219 62.1201 86.7053 61.9249 86.5101C61.7296 86.3148 61.413 86.3148 61.2178 86.5101L53.8152 93.9127C53.6199 94.1079 53.6199 94.4245 53.8152 94.6198C54.0104 94.8151 54.327 94.8151 54.5223 94.6198L61.9249 87.2172Z" fill="url(#paint23_linear_11_1199)"/>
<path d="M79.8147 0.146447C80.0099 0.341709 80.0099 0.658291 79.8147 0.853553L72.4121 8.25615C72.2168 8.45141 71.9002 8.45141 71.705 8.25615C71.5097 8.06089 71.5097 7.74431 71.705 7.54904L79.1076 0.146447C79.3028 -0.0488155 79.6194 -0.0488155 79.8147 0.146447Z" fill="url(#paint24_linear_11_1199)"/>
<path d="M79.8147 17.4192C80.0099 17.6144 80.0099 17.931 79.8147 18.1263L72.4121 25.5289C72.2168 25.7241 71.9002 25.7241 71.705 25.5289C71.5097 25.3336 71.5097 25.017 71.705 24.8218L79.1076 17.4192C79.3028 17.2239 79.6194 17.2239 79.8147 17.4192Z" fill="url(#paint25_linear_11_1199)"/>
<path d="M79.8147 35.399C80.0099 35.2037 80.0099 34.8872 79.8147 34.6919C79.6194 34.4966 79.3028 34.4966 79.1076 34.6919L71.705 42.0945C71.5097 42.2898 71.5097 42.6063 71.705 42.8016C71.9002 42.9969 72.2168 42.9969 72.4121 42.8016L79.8147 35.399Z" fill="url(#paint26_linear_11_1199)"/>
<path d="M79.8147 51.9646C80.0099 52.1599 80.0099 52.4765 79.8147 52.6717L72.4121 60.0743C72.2168 60.2696 71.9002 60.2696 71.705 60.0743C71.5097 59.8791 71.5097 59.5625 71.705 59.3672L79.1076 51.9646C79.3028 51.7694 79.6194 51.7694 79.8147 51.9646Z" fill="url(#paint27_linear_11_1199)"/>
<path d="M79.8147 69.9445C80.0099 69.7492 80.0099 69.4326 79.8147 69.2374C79.6194 69.0421 79.3028 69.0421 79.1076 69.2374L71.705 76.64C71.5097 76.8352 71.5097 77.1518 71.705 77.3471C71.9002 77.5423 72.2168 77.5423 72.4121 77.3471L79.8147 69.9445Z" fill="url(#paint28_linear_11_1199)"/>
<path d="M79.8147 86.5101C80.0099 86.7053 80.0099 87.0219 79.8147 87.2172L72.4121 94.6198C72.2168 94.8151 71.9002 94.8151 71.705 94.6198C71.5097 94.4245 71.5097 94.1079 71.705 93.9127L79.1076 86.5101C79.3028 86.3148 79.6194 86.3148 79.8147 86.5101Z" fill="url(#paint29_linear_11_1199)"/>
<path d="M97.7043 0.853553C97.8995 0.658291 97.8995 0.341709 97.7043 0.146447C97.509 -0.0488155 97.1924 -0.0488155 96.9971 0.146447L89.5946 7.54904C89.3993 7.74431 89.3993 8.06089 89.5946 8.25615C89.7898 8.45141 90.1064 8.45141 90.3017 8.25615L97.7043 0.853553Z" fill="url(#paint30_linear_11_1199)"/>
<path d="M97.7043 18.1263C97.8995 17.931 97.8995 17.6144 97.7043 17.4192C97.509 17.2239 97.1924 17.2239 96.9971 17.4192L89.5946 24.8218C89.3993 25.017 89.3993 25.3336 89.5946 25.5289C89.7898 25.7241 90.1064 25.7241 90.3017 25.5289L97.7043 18.1263Z" fill="url(#paint31_linear_11_1199)"/>
<path d="M97.7043 34.6919C97.8995 34.8872 97.8995 35.2037 97.7043 35.399L90.3017 42.8016C90.1064 42.9969 89.7898 42.9969 89.5946 42.8016C89.3993 42.6063 89.3993 42.2898 89.5946 42.0945L96.9971 34.6919C97.1924 34.4966 97.509 34.4966 97.7043 34.6919Z" fill="url(#paint32_linear_11_1199)"/>
<path d="M97.7043 52.6717C97.8995 52.4765 97.8995 52.1599 97.7043 51.9646C97.509 51.7694 97.1924 51.7694 96.9971 51.9646L89.5946 59.3672C89.3993 59.5625 89.3993 59.8791 89.5946 60.0743C89.7898 60.2696 90.1064 60.2696 90.3017 60.0743L97.7043 52.6717Z" fill="url(#paint33_linear_11_1199)"/>
<path d="M97.7043 69.2374C97.8995 69.4326 97.8995 69.7492 97.7043 69.9445L90.3017 77.3471C90.1064 77.5423 89.7898 77.5423 89.5946 77.3471C89.3993 77.1518 89.3993 76.8352 89.5946 76.64L96.9971 69.2374C97.1924 69.0421 97.509 69.0421 97.7043 69.2374Z" fill="url(#paint34_linear_11_1199)"/>
<path d="M97.7043 87.2172C97.8995 87.0219 97.8995 86.7053 97.7043 86.5101C97.509 86.3148 97.1924 86.3148 96.9971 86.5101L89.5946 93.9127C89.3993 94.1079 89.3993 94.4245 89.5946 94.6198C89.7898 94.8151 90.1064 94.8151 90.3017 94.6198L97.7043 87.2172Z" fill="url(#paint35_linear_11_1199)"/>
<path d="M115.594 0.146447C115.789 0.341709 115.789 0.658291 115.594 0.853553L108.191 8.25615C107.996 8.45141 107.679 8.45141 107.484 8.25615C107.289 8.06089 107.289 7.74431 107.484 7.54904L114.887 0.146447C115.082 -0.0488155 115.399 -0.0488155 115.594 0.146447Z" fill="url(#paint36_linear_11_1199)"/>
<path d="M115.594 17.4192C115.789 17.6144 115.789 17.931 115.594 18.1263L108.191 25.5289C107.996 25.7241 107.679 25.7241 107.484 25.5289C107.289 25.3336 107.289 25.017 107.484 24.8218L114.887 17.4192C115.082 17.2239 115.399 17.2239 115.594 17.4192Z" fill="url(#paint37_linear_11_1199)"/>
<path d="M115.594 35.399C115.789 35.2037 115.789 34.8872 115.594 34.6919C115.399 34.4966 115.082 34.4966 114.887 34.6919L107.484 42.0945C107.289 42.2898 107.289 42.6063 107.484 42.8016C107.679 42.9969 107.996 42.9969 108.191 42.8016L115.594 35.399Z" fill="url(#paint38_linear_11_1199)"/>
<path d="M115.594 51.9646C115.789 52.1599 115.789 52.4765 115.594 52.6717L108.191 60.0743C107.996 60.2696 107.679 60.2696 107.484 60.0743C107.289 59.8791 107.289 59.5625 107.484 59.3672L114.887 51.9646C115.082 51.7694 115.399 51.7694 115.594 51.9646Z" fill="url(#paint39_linear_11_1199)"/>
<path d="M115.594 69.9445C115.789 69.7492 115.789 69.4326 115.594 69.2374C115.399 69.0421 115.082 69.0421 114.887 69.2374L107.484 76.64C107.289 76.8352 107.289 77.1518 107.484 77.3471C107.679 77.5423 107.996 77.5423 108.191 77.3471L115.594 69.9445Z" fill="url(#paint40_linear_11_1199)"/>
<path d="M115.594 86.5101C115.789 86.7053 115.789 87.0219 115.594 87.2172L108.191 94.6198C107.996 94.8151 107.679 94.8151 107.484 94.6198C107.289 94.4245 107.289 94.1079 107.484 93.9127L114.887 86.5101C115.082 86.3148 115.399 86.3148 115.594 86.5101Z" fill="url(#paint41_linear_11_1199)"/>
<path d="M133.483 0.146447C133.679 0.341709 133.679 0.658291 133.483 0.853553L126.081 8.25615C125.886 8.45141 125.569 8.45141 125.374 8.25615C125.178 8.06089 125.178 7.74431 125.374 7.54904L132.776 0.146447C132.972 -0.0488155 133.288 -0.0488155 133.483 0.146447Z" fill="url(#paint42_linear_11_1199)"/>
<path d="M133.483 17.4192C133.679 17.6144 133.679 17.931 133.483 18.1263L126.081 25.5289C125.886 25.7241 125.569 25.7241 125.374 25.5289C125.178 25.3336 125.178 25.017 125.374 24.8218L132.776 17.4192C132.972 17.2239 133.288 17.2239 133.483 17.4192Z" fill="url(#paint43_linear_11_1199)"/>
<path d="M133.483 35.399C133.679 35.2037 133.679 34.8872 133.483 34.6919C133.288 34.4966 132.972 34.4966 132.776 34.6919L125.374 42.0945C125.178 42.2898 125.178 42.6063 125.374 42.8016C125.569 42.9969 125.886 42.9969 126.081 42.8016L133.483 35.399Z" fill="url(#paint44_linear_11_1199)"/>
<path d="M133.483 51.9646C133.679 52.1599 133.679 52.4765 133.483 52.6717L126.081 60.0743C125.886 60.2696 125.569 60.2696 125.374 60.0743C125.178 59.8791 125.178 59.5625 125.374 59.3672L132.776 51.9646C132.972 51.7694 133.288 51.7694 133.483 51.9646Z" fill="url(#paint45_linear_11_1199)"/>
<path d="M133.483 69.9445C133.679 69.7492 133.679 69.4326 133.483 69.2374C133.288 69.0421 132.972 69.0421 132.776 69.2374L125.374 76.64C125.178 76.8352 125.178 77.1518 125.374 77.3471C125.569 77.5423 125.886 77.5423 126.081 77.3471L133.483 69.9445Z" fill="url(#paint46_linear_11_1199)"/>
<path d="M133.483 86.5101C133.679 86.7053 133.679 87.0219 133.483 87.2172L126.081 94.6198C125.886 94.8151 125.569 94.8151 125.374 94.6198C125.178 94.4245 125.178 94.1079 125.374 93.9127L132.776 86.5101C132.972 86.3148 133.288 86.3148 133.483 86.5101Z" fill="url(#paint47_linear_11_1199)"/>
<defs>
<linearGradient id="paint0_linear_11_1199" x1="66.8149" y1="0" x2="66.8149" y2="94.7662" gradientUnits="userSpaceOnUse">
<stop stop-color="#FF9CCF"/>
<stop offset="1" stop-color="#FCDFEE" stop-opacity="0"/>
</linearGradient>
<linearGradient id="paint1_linear_11_1199" x1="66.8149" y1="0" x2="66.8149" y2="94.7662" gradientUnits="userSpaceOnUse">
<stop stop-color="#FF9CCF"/>
<stop offset="1" stop-color="#FCDFEE" stop-opacity="0"/>
</linearGradient>
<linearGradient id="paint2_linear_11_1199" x1="66.8149" y1="0" x2="66.8149" y2="94.7662" gradientUnits="userSpaceOnUse">
<stop stop-color="#FF9CCF"/>
<stop offset="1" stop-color="#FCDFEE" stop-opacity="0"/>
</linearGradient>
<linearGradient id="paint3_linear_11_1199" x1="66.8149" y1="0" x2="66.8149" y2="94.7662" gradientUnits="userSpaceOnUse">
<stop stop-color="#FF9CCF"/>
<stop offset="1" stop-color="#FCDFEE" stop-opacity="0"/>
</linearGradient>
<linearGradient id="paint4_linear_11_1199" x1="66.8149" y1="0" x2="66.8149" y2="94.7662" gradientUnits="userSpaceOnUse">
<stop stop-color="#FF9CCF"/>
<stop offset="1" stop-color="#FCDFEE" stop-opacity="0"/>
</linearGradient>
<linearGradient id="paint5_linear_11_1199" x1="66.8149" y1="0" x2="66.8149" y2="94.7662" gradientUnits="userSpaceOnUse">
<stop stop-color="#FF9CCF"/>
<stop offset="1" stop-color="#FCDFEE" stop-opacity="0"/>
</linearGradient>
<linearGradient id="paint6_linear_11_1199" x1="66.8149" y1="0" x2="66.8149" y2="94.7662" gradientUnits="userSpaceOnUse">
<stop stop-color="#FF9CCF"/>
<stop offset="1" stop-color="#FCDFEE" stop-opacity="0"/>
</linearGradient>
<linearGradient id="paint7_linear_11_1199" x1="66.8149" y1="0" x2="66.8149" y2="94.7662" gradientUnits="userSpaceOnUse">
<stop stop-color="#FF9CCF"/>
<stop offset="1" stop-color="#FCDFEE" stop-opacity="0"/>
</linearGradient>
<linearGradient id="paint8_linear_11_1199" x1="66.8149" y1="0" x2="66.8149" y2="94.7662" gradientUnits="userSpaceOnUse">
<stop stop-color="#FF9CCF"/>
<stop offset="1" stop-color="#FCDFEE" stop-opacity="0"/>
</linearGradient>
<linearGradient id="paint9_linear_11_1199" x1="66.8149" y1="0" x2="66.8149" y2="94.7662" gradientUnits="userSpaceOnUse">
<stop stop-color="#FF9CCF"/>
<stop offset="1" stop-color="#FCDFEE" stop-opacity="0"/>
</linearGradient>
<linearGradient id="paint10_linear_11_1199" x1="66.8149" y1="0" x2="66.8149" y2="94.7662" gradientUnits="userSpaceOnUse">
<stop stop-color="#FF9CCF"/>
<stop offset="1" stop-color="#FCDFEE" stop-opacity="0"/>
</linearGradient>
<linearGradient id="paint11_linear_11_1199" x1="66.8149" y1="0" x2="66.8149" y2="94.7662" gradientUnits="userSpaceOnUse">
<stop stop-color="#FF9CCF"/>
<stop offset="1" stop-color="#FCDFEE" stop-opacity="0"/>
</linearGradient>
<linearGradient id="paint12_linear_11_1199" x1="66.8149" y1="0" x2="66.8149" y2="94.7662" gradientUnits="userSpaceOnUse">
<stop stop-color="#FF9CCF"/>
<stop offset="1" stop-color="#FCDFEE" stop-opacity="0"/>
</linearGradient>
<linearGradient id="paint13_linear_11_1199" x1="66.8149" y1="0" x2="66.8149" y2="94.7662" gradientUnits="userSpaceOnUse">
<stop stop-color="#FF9CCF"/>
<stop offset="1" stop-color="#FCDFEE" stop-opacity="0"/>
</linearGradient>
<linearGradient id="paint14_linear_11_1199" x1="66.8149" y1="0" x2="66.8149" y2="94.7662" gradientUnits="userSpaceOnUse">
<stop stop-color="#FF9CCF"/>
<stop offset="1" stop-color="#FCDFEE" stop-opacity="0"/>
</linearGradient>
<linearGradient id="paint15_linear_11_1199" x1="66.8149" y1="0" x2="66.8149" y2="94.7662" gradientUnits="userSpaceOnUse">
<stop stop-color="#FF9CCF"/>
<stop offset="1" stop-color="#FCDFEE" stop-opacity="0"/>
</linearGradient>
<linearGradient id="paint16_linear_11_1199" x1="66.8149" y1="0" x2="66.8149" y2="94.7662" gradientUnits="userSpaceOnUse">
<stop stop-color="#FF9CCF"/>
<stop offset="1" stop-color="#FCDFEE" stop-opacity="0"/>
</linearGradient>
<linearGradient id="paint17_linear_11_1199" x1="66.8149" y1="0" x2="66.8149" y2="94.7662" gradientUnits="userSpaceOnUse">
<stop stop-color="#FF9CCF"/>
<stop offset="1" stop-color="#FCDFEE" stop-opacity="0"/>
</linearGradient>
<linearGradient id="paint18_linear_11_1199" x1="66.8149" y1="0" x2="66.8149" y2="94.7662" gradientUnits="userSpaceOnUse">
<stop stop-color="#FF9CCF"/>
<stop offset="1" stop-color="#FCDFEE" stop-opacity="0"/>
</linearGradient>
<linearGradient id="paint19_linear_11_1199" x1="66.8149" y1="0" x2="66.8149" y2="94.7662" gradientUnits="userSpaceOnUse">
<stop stop-color="#FF9CCF"/>
<stop offset="1" stop-color="#FCDFEE" stop-opacity="0"/>
</linearGradient>
<linearGradient id="paint20_linear_11_1199" x1="66.8149" y1="0" x2="66.8149" y2="94.7662" gradientUnits="userSpaceOnUse">
<stop stop-color="#FF9CCF"/>
<stop offset="1" stop-color="#FCDFEE" stop-opacity="0"/>
</linearGradient>
<linearGradient id="paint21_linear_11_1199" x1="66.8149" y1="0" x2="66.8149" y2="94.7662" gradientUnits="userSpaceOnUse">
<stop stop-color="#FF9CCF"/>
<stop offset="1" stop-color="#FCDFEE" stop-opacity="0"/>
</linearGradient>
<linearGradient id="paint22_linear_11_1199" x1="66.8149" y1="0" x2="66.8149" y2="94.7662" gradientUnits="userSpaceOnUse">
<stop stop-color="#FF9CCF"/>
<stop offset="1" stop-color="#FCDFEE" stop-opacity="0"/>
</linearGradient>
<linearGradient id="paint23_linear_11_1199" x1="66.8149" y1="0" x2="66.8149" y2="94.7662" gradientUnits="userSpaceOnUse">
<stop stop-color="#FF9CCF"/>
<stop offset="1" stop-color="#FCDFEE" stop-opacity="0"/>
</linearGradient>
<linearGradient id="paint24_linear_11_1199" x1="66.8149" y1="0" x2="66.8149" y2="94.7662" gradientUnits="userSpaceOnUse">
<stop stop-color="#FF9CCF"/>
<stop offset="1" stop-color="#FCDFEE" stop-opacity="0"/>
</linearGradient>
<linearGradient id="paint25_linear_11_1199" x1="66.8149" y1="0" x2="66.8149" y2="94.7662" gradientUnits="userSpaceOnUse">
<stop stop-color="#FF9CCF"/>
<stop offset="1" stop-color="#FCDFEE" stop-opacity="0"/>
</linearGradient>
<linearGradient id="paint26_linear_11_1199" x1="66.8149" y1="0" x2="66.8149" y2="94.7662" gradientUnits="userSpaceOnUse">
<stop stop-color="#FF9CCF"/>
<stop offset="1" stop-color="#FCDFEE" stop-opacity="0"/>
</linearGradient>
<linearGradient id="paint27_linear_11_1199" x1="66.8149" y1="0" x2="66.8149" y2="94.7662" gradientUnits="userSpaceOnUse">
<stop stop-color="#FF9CCF"/>
<stop offset="1" stop-color="#FCDFEE" stop-opacity="0"/>
</linearGradient>
<linearGradient id="paint28_linear_11_1199" x1="66.8149" y1="0" x2="66.8149" y2="94.7662" gradientUnits="userSpaceOnUse">
<stop stop-color="#FF9CCF"/>
<stop offset="1" stop-color="#FCDFEE" stop-opacity="0"/>
</linearGradient>
<linearGradient id="paint29_linear_11_1199" x1="66.8149" y1="0" x2="66.8149" y2="94.7662" gradientUnits="userSpaceOnUse">
<stop stop-color="#FF9CCF"/>
<stop offset="1" stop-color="#FCDFEE" stop-opacity="0"/>
</linearGradient>
<linearGradient id="paint30_linear_11_1199" x1="66.8149" y1="0" x2="66.8149" y2="94.7662" gradientUnits="userSpaceOnUse">
<stop stop-color="#FF9CCF"/>
<stop offset="1" stop-color="#FCDFEE" stop-opacity="0"/>
</linearGradient>
<linearGradient id="paint31_linear_11_1199" x1="66.8149" y1="0" x2="66.8149" y2="94.7662" gradientUnits="userSpaceOnUse">
<stop stop-color="#FF9CCF"/>
<stop offset="1" stop-color="#FCDFEE" stop-opacity="0"/>
</linearGradient>
<linearGradient id="paint32_linear_11_1199" x1="66.8149" y1="0" x2="66.8149" y2="94.7662" gradientUnits="userSpaceOnUse">
<stop stop-color="#FF9CCF"/>
<stop offset="1" stop-color="#FCDFEE" stop-opacity="0"/>
</linearGradient>
<linearGradient id="paint33_linear_11_1199" x1="66.8149" y1="0" x2="66.8149" y2="94.7662" gradientUnits="userSpaceOnUse">
<stop stop-color="#FF9CCF"/>
<stop offset="1" stop-color="#FCDFEE" stop-opacity="0"/>
</linearGradient>
<linearGradient id="paint34_linear_11_1199" x1="66.8149" y1="0" x2="66.8149" y2="94.7662" gradientUnits="userSpaceOnUse">
<stop stop-color="#FF9CCF"/>
<stop offset="1" stop-color="#FCDFEE" stop-opacity="0"/>
</linearGradient>
<linearGradient id="paint35_linear_11_1199" x1="66.8149" y1="0" x2="66.8149" y2="94.7662" gradientUnits="userSpaceOnUse">
<stop stop-color="#FF9CCF"/>
<stop offset="1" stop-color="#FCDFEE" stop-opacity="0"/>
</linearGradient>
<linearGradient id="paint36_linear_11_1199" x1="66.8149" y1="0" x2="66.8149" y2="94.7662" gradientUnits="userSpaceOnUse">
<stop stop-color="#FF9CCF"/>
<stop offset="1" stop-color="#FCDFEE" stop-opacity="0"/>
</linearGradient>
<linearGradient id="paint37_linear_11_1199" x1="66.8149" y1="0" x2="66.8149" y2="94.7662" gradientUnits="userSpaceOnUse">
<stop stop-color="#FF9CCF"/>
<stop offset="1" stop-color="#FCDFEE" stop-opacity="0"/>
</linearGradient>
<linearGradient id="paint38_linear_11_1199" x1="66.8149" y1="0" x2="66.8149" y2="94.7662" gradientUnits="userSpaceOnUse">
<stop stop-color="#FF9CCF"/>
<stop offset="1" stop-color="#FCDFEE" stop-opacity="0"/>
</linearGradient>
<linearGradient id="paint39_linear_11_1199" x1="66.8149" y1="0" x2="66.8149" y2="94.7662" gradientUnits="userSpaceOnUse">
<stop stop-color="#FF9CCF"/>
<stop offset="1" stop-color="#FCDFEE" stop-opacity="0"/>
</linearGradient>
<linearGradient id="paint40_linear_11_1199" x1="66.8149" y1="0" x2="66.8149" y2="94.7662" gradientUnits="userSpaceOnUse">
<stop stop-color="#FF9CCF"/>
<stop offset="1" stop-color="#FCDFEE" stop-opacity="0"/>
</linearGradient>
<linearGradient id="paint41_linear_11_1199" x1="66.8149" y1="0" x2="66.8149" y2="94.7662" gradientUnits="userSpaceOnUse">
<stop stop-color="#FF9CCF"/>
<stop offset="1" stop-color="#FCDFEE" stop-opacity="0"/>
</linearGradient>
<linearGradient id="paint42_linear_11_1199" x1="66.8149" y1="0" x2="66.8149" y2="94.7662" gradientUnits="userSpaceOnUse">
<stop stop-color="#FF9CCF"/>
<stop offset="1" stop-color="#FCDFEE" stop-opacity="0"/>
</linearGradient>
<linearGradient id="paint43_linear_11_1199" x1="66.8149" y1="0" x2="66.8149" y2="94.7662" gradientUnits="userSpaceOnUse">
<stop stop-color="#FF9CCF"/>
<stop offset="1" stop-color="#FCDFEE" stop-opacity="0"/>
</linearGradient>
<linearGradient id="paint44_linear_11_1199" x1="66.8149" y1="0" x2="66.8149" y2="94.7662" gradientUnits="userSpaceOnUse">
<stop stop-color="#FF9CCF"/>
<stop offset="1" stop-color="#FCDFEE" stop-opacity="0"/>
</linearGradient>
<linearGradient id="paint45_linear_11_1199" x1="66.8149" y1="0" x2="66.8149" y2="94.7662" gradientUnits="userSpaceOnUse">
<stop stop-color="#FF9CCF"/>
<stop offset="1" stop-color="#FCDFEE" stop-opacity="0"/>
</linearGradient>
<linearGradient id="paint46_linear_11_1199" x1="66.8149" y1="0" x2="66.8149" y2="94.7662" gradientUnits="userSpaceOnUse">
<stop stop-color="#FF9CCF"/>
<stop offset="1" stop-color="#FCDFEE" stop-opacity="0"/>
</linearGradient>
<linearGradient id="paint47_linear_11_1199" x1="66.8149" y1="0" x2="66.8149" y2="94.7662" gradientUnits="userSpaceOnUse">
<stop stop-color="#FF9CCF"/>
<stop offset="1" stop-color="#FCDFEE" stop-opacity="0"/>
</linearGradient>
</defs>
</svg>
