<svg width="51" height="102" viewBox="0 0 51 102" fill="none" xmlns="http://www.w3.org/2000/svg">
<path d="M29.9381 2.1582C29.9381 1.32978 29.2665 0.658203 28.4381 0.658203C27.6097 0.658203 26.9381 1.32978 26.9381 2.1582L26.9381 28.9686C26.9381 29.7971 27.6097 30.4686 28.4381 30.4686C29.2665 30.4686 29.9381 29.7971 29.9381 28.9686L29.9381 2.1582Z" fill="url(#paint0_linear_11_1245)"/>
<path d="M50.9811 2.1582C50.9811 1.32978 50.3095 0.658203 49.4811 0.658203C48.6527 0.658203 47.9811 1.32978 47.9811 2.1582L47.9811 99.9876C47.9811 100.816 48.6527 101.488 49.4811 101.488C50.3095 101.488 50.9811 100.816 50.9811 99.9876L50.9811 2.1582Z" fill="url(#paint1_linear_11_1245)"/>
<path d="M28.4381 71.6777C29.2665 71.6777 29.9381 72.3493 29.9381 73.1777L29.9381 99.9882C29.9381 100.817 29.2665 101.488 28.4381 101.488C27.6097 101.488 26.9381 100.817 26.9381 99.9882L26.9381 73.1777C26.9381 72.3493 27.6097 71.6777 28.4381 71.6777Z" fill="url(#paint2_linear_11_1245)"/>
<path d="M28.9454 66.7861C29.7739 66.7861 30.4454 66.1146 30.4454 65.2861C30.4454 64.4577 29.7739 63.7861 28.9454 63.7861L2.13501 63.7861C1.30658 63.7861 0.63501 64.4577 0.63501 65.2861C0.63501 66.1146 1.30658 66.7861 2.13501 66.7861H28.9454Z" fill="url(#paint3_linear_11_1245)"/>
<path d="M42.4669 0.658203C43.2953 0.658203 43.9669 1.32978 43.9669 2.1582L43.9669 99.9876C43.9669 100.816 43.2953 101.488 42.4669 101.488C41.6385 101.488 40.9669 100.816 40.9669 99.9876L40.9669 2.1582C40.9669 1.32978 41.6385 0.658203 42.4669 0.658203Z" fill="url(#paint4_linear_11_1245)"/>
<path d="M22.9244 2.1582C22.9244 1.32978 22.2529 0.658203 21.4244 0.658203C20.596 0.658203 19.9244 1.32978 19.9244 2.1582L19.9244 28.9686C19.9244 29.7971 20.596 30.4686 21.4244 30.4686C22.2529 30.4686 22.9244 29.7971 22.9244 28.9686L22.9244 2.1582Z" fill="url(#paint5_linear_11_1245)"/>
<path d="M21.4244 71.6777C22.2529 71.6777 22.9244 72.3493 22.9244 73.1777L22.9244 99.9882C22.9244 100.817 22.2529 101.488 21.4244 101.488C20.596 101.488 19.9244 100.817 19.9244 99.9882L19.9244 73.1777C19.9244 72.3493 20.596 71.6777 21.4244 71.6777Z" fill="url(#paint6_linear_11_1245)"/>
<path d="M28.9454 59.7715C29.7739 59.7715 30.4454 59.0999 30.4454 58.2715C30.4454 57.4431 29.7739 56.7715 28.9454 56.7715L2.13501 56.7715C1.30658 56.7715 0.63501 57.4431 0.63501 58.2715C0.63501 59.0999 1.30658 59.7715 2.13501 59.7715L28.9454 59.7715Z" fill="url(#paint7_linear_11_1245)"/>
<path d="M30.4454 44.2441C30.4454 45.0726 29.7739 45.7441 28.9454 45.7441L2.13501 45.7441C1.30658 45.7441 0.63501 45.0726 0.63501 44.2441C0.63501 43.4157 1.30658 42.7441 2.13501 42.7441L28.9454 42.7441C29.7739 42.7441 30.4454 43.4157 30.4454 44.2441Z" fill="url(#paint8_linear_11_1245)"/>
<path d="M36.9528 2.1582C36.9528 1.32978 36.2812 0.658203 35.4528 0.658203C34.6243 0.658203 33.9528 1.32978 33.9528 2.1582L33.9528 99.9876C33.9528 100.816 34.6243 101.488 35.4528 101.488C36.2812 101.488 36.9528 100.816 36.9528 99.9876L36.9528 2.1582Z" fill="url(#paint9_linear_11_1245)"/>
<path d="M14.4098 0.658203C15.2382 0.658203 15.9098 1.32978 15.9098 2.1582L15.9098 28.9686C15.9098 29.7971 15.2382 30.4686 14.4098 30.4686C13.5814 30.4686 12.9098 29.7971 12.9098 28.9686L12.9098 2.1582C12.9098 1.32978 13.5814 0.658203 14.4098 0.658203Z" fill="url(#paint10_linear_11_1245)"/>
<path d="M15.9098 73.1777C15.9098 72.3493 15.2382 71.6777 14.4098 71.6777C13.5814 71.6777 12.9098 72.3493 12.9098 73.1777L12.9098 99.9882C12.9098 100.817 13.5814 101.488 14.4098 101.488C15.2382 101.488 15.9098 100.817 15.9098 99.9882L15.9098 73.1777Z" fill="url(#paint11_linear_11_1245)"/>
<path d="M30.4454 51.2578C30.4454 52.0862 29.7739 52.7578 28.9454 52.7578L2.13501 52.7578C1.30658 52.7578 0.63501 52.0862 0.63501 51.2578C0.63501 50.4294 1.30658 49.7578 2.13501 49.7578L28.9454 49.7578C29.7739 49.7578 30.4454 50.4294 30.4454 51.2578Z" fill="url(#paint12_linear_11_1245)"/>
<path d="M28.9454 38.7295C29.7739 38.7295 30.4454 38.0579 30.4454 37.2295C30.4454 36.4011 29.7739 35.7295 28.9454 35.7295L2.13501 35.7295C1.30658 35.7295 0.63501 36.4011 0.63501 37.2295C0.63501 38.0579 1.30658 38.7295 2.13501 38.7295L28.9454 38.7295Z" fill="url(#paint13_linear_11_1245)"/>
<defs>
<linearGradient id="paint0_linear_11_1245" x1="46.9861" y1="26" x2="25.4861" y2="87" gradientUnits="userSpaceOnUse">
<stop stop-color="#FFD7CB"/>
<stop offset="1" stop-color="#FFD7CB" stop-opacity="0"/>
</linearGradient>
<linearGradient id="paint1_linear_11_1245" x1="46.9861" y1="26" x2="25.4861" y2="87" gradientUnits="userSpaceOnUse">
<stop stop-color="#FFD7CB"/>
<stop offset="1" stop-color="#FFD7CB" stop-opacity="0"/>
</linearGradient>
<linearGradient id="paint2_linear_11_1245" x1="46.9861" y1="26" x2="25.4861" y2="87" gradientUnits="userSpaceOnUse">
<stop stop-color="#FFD7CB"/>
<stop offset="1" stop-color="#FFD7CB" stop-opacity="0"/>
</linearGradient>
<linearGradient id="paint3_linear_11_1245" x1="46.9861" y1="26" x2="25.4861" y2="87" gradientUnits="userSpaceOnUse">
<stop stop-color="#FFD7CB"/>
<stop offset="1" stop-color="#FFD7CB" stop-opacity="0"/>
</linearGradient>
<linearGradient id="paint4_linear_11_1245" x1="46.9861" y1="26" x2="25.4861" y2="87" gradientUnits="userSpaceOnUse">
<stop stop-color="#FFD7CB"/>
<stop offset="1" stop-color="#FFD7CB" stop-opacity="0"/>
</linearGradient>
<linearGradient id="paint5_linear_11_1245" x1="46.9861" y1="26" x2="25.4861" y2="87" gradientUnits="userSpaceOnUse">
<stop stop-color="#FFD7CB"/>
<stop offset="1" stop-color="#FFD7CB" stop-opacity="0"/>
</linearGradient>
<linearGradient id="paint6_linear_11_1245" x1="46.9861" y1="26" x2="25.4861" y2="87" gradientUnits="userSpaceOnUse">
<stop stop-color="#FFD7CB"/>
<stop offset="1" stop-color="#FFD7CB" stop-opacity="0"/>
</linearGradient>
<linearGradient id="paint7_linear_11_1245" x1="46.9861" y1="26" x2="25.4861" y2="87" gradientUnits="userSpaceOnUse">
<stop stop-color="#FFD7CB"/>
<stop offset="1" stop-color="#FFD7CB" stop-opacity="0"/>
</linearGradient>
<linearGradient id="paint8_linear_11_1245" x1="46.9861" y1="26" x2="25.4861" y2="87" gradientUnits="userSpaceOnUse">
<stop stop-color="#FFD7CB"/>
<stop offset="1" stop-color="#FFD7CB" stop-opacity="0"/>
</linearGradient>
<linearGradient id="paint9_linear_11_1245" x1="46.9861" y1="26" x2="25.4861" y2="87" gradientUnits="userSpaceOnUse">
<stop stop-color="#FFD7CB"/>
<stop offset="1" stop-color="#FFD7CB" stop-opacity="0"/>
</linearGradient>
<linearGradient id="paint10_linear_11_1245" x1="46.9861" y1="26" x2="25.4861" y2="87" gradientUnits="userSpaceOnUse">
<stop stop-color="#FFD7CB"/>
<stop offset="1" stop-color="#FFD7CB" stop-opacity="0"/>
</linearGradient>
<linearGradient id="paint11_linear_11_1245" x1="46.9861" y1="26" x2="25.4861" y2="87" gradientUnits="userSpaceOnUse">
<stop stop-color="#FFD7CB"/>
<stop offset="1" stop-color="#FFD7CB" stop-opacity="0"/>
</linearGradient>
<linearGradient id="paint12_linear_11_1245" x1="46.9861" y1="26" x2="25.4861" y2="87" gradientUnits="userSpaceOnUse">
<stop stop-color="#FFD7CB"/>
<stop offset="1" stop-color="#FFD7CB" stop-opacity="0"/>
</linearGradient>
<linearGradient id="paint13_linear_11_1245" x1="46.9861" y1="26" x2="25.4861" y2="87" gradientUnits="userSpaceOnUse">
<stop stop-color="#FFD7CB"/>
<stop offset="1" stop-color="#FFD7CB" stop-opacity="0"/>
</linearGradient>
</defs>
</svg>
