<svg width="232" height="232" viewBox="0 0 232 232" fill="none" xmlns="http://www.w3.org/2000/svg">
<path d="M51.7229 115.109C51.7229 85.4309 75.7818 61.3721 105.46 61.3721C135.138 61.3721 159.197 85.4309 159.197 115.109C159.197 115.937 159.868 116.609 160.697 116.609C161.525 116.609 162.197 115.937 162.197 115.109C162.197 83.7741 136.795 58.3721 105.46 58.3721C74.1249 58.3721 48.7229 83.7741 48.7229 115.109C48.7229 118.961 49.1071 122.726 49.8396 126.365C50.0031 127.177 50.794 127.703 51.6061 127.539C52.4183 127.376 52.9441 126.585 52.7806 125.773C52.0871 122.327 51.7229 118.761 51.7229 115.109Z" fill="url(#paint0_linear_11_1244)"/>
<path fill-rule="evenodd" clip-rule="evenodd" d="M112.035 40.8369C69.8053 40.8369 35.571 75.0712 35.571 117.301C35.571 159.532 69.8053 193.766 112.035 193.766C154.266 193.766 188.5 159.532 188.5 117.301C188.5 75.0712 154.266 40.8369 112.035 40.8369ZM38.571 117.301C38.571 76.7281 71.4622 43.8369 112.035 43.8369C152.609 43.8369 185.5 76.7281 185.5 117.301C185.5 157.875 152.609 190.766 112.035 190.766C71.4622 190.766 38.571 157.875 38.571 117.301Z" fill="url(#paint1_linear_11_1244)"/>
<path fill-rule="evenodd" clip-rule="evenodd" d="M19.7893 116.863C19.7893 65.6744 61.2857 24.178 112.474 24.178C163.663 24.178 205.159 65.6744 205.159 116.863C205.159 168.051 163.663 209.548 112.474 209.548C61.2857 209.548 19.7893 168.051 19.7893 116.863ZM112.474 27.178C62.9426 27.178 22.7893 67.3313 22.7893 116.863C22.7893 166.394 62.9426 206.548 112.474 206.548C162.006 206.548 202.159 166.394 202.159 116.863C202.159 67.3313 162.006 27.178 112.474 27.178Z" fill="url(#paint2_linear_11_1244)"/>
<path fill-rule="evenodd" clip-rule="evenodd" d="M115.981 0.503906C52.2026 0.503906 0.5 52.2065 0.5 115.985C0.5 179.763 52.2026 231.466 115.981 231.466C179.759 231.466 231.462 179.763 231.462 115.985C231.462 52.2065 179.759 0.503906 115.981 0.503906ZM3.5 115.985C3.5 53.8634 53.8595 3.50391 115.981 3.50391C178.103 3.50391 228.462 53.8634 228.462 115.985C228.462 178.107 178.103 228.466 115.981 228.466C53.8595 228.466 3.5 178.107 3.5 115.985Z" fill="url(#paint3_linear_11_1244)"/>
<defs>
<linearGradient id="paint0_linear_11_1244" x1="115.981" y1="0.503906" x2="115.981" y2="231.466" gradientUnits="userSpaceOnUse">
<stop stop-color="#FF9771" stop-opacity="0.84"/>
<stop offset="0.954425" stop-color="#FF9771" stop-opacity="0"/>
</linearGradient>
<linearGradient id="paint1_linear_11_1244" x1="115.981" y1="0.503906" x2="115.981" y2="231.466" gradientUnits="userSpaceOnUse">
<stop stop-color="#FF9771" stop-opacity="0.84"/>
<stop offset="0.954425" stop-color="#FF9771" stop-opacity="0"/>
</linearGradient>
<linearGradient id="paint2_linear_11_1244" x1="115.981" y1="0.503906" x2="115.981" y2="231.466" gradientUnits="userSpaceOnUse">
<stop stop-color="#FF9771" stop-opacity="0.84"/>
<stop offset="0.954425" stop-color="#FF9771" stop-opacity="0"/>
</linearGradient>
<linearGradient id="paint3_linear_11_1244" x1="115.981" y1="0.503906" x2="115.981" y2="231.466" gradientUnits="userSpaceOnUse">
<stop stop-color="#FF9771" stop-opacity="0.84"/>
<stop offset="0.954425" stop-color="#FF9771" stop-opacity="0"/>
</linearGradient>
</defs>
</svg>
