<svg width="89" height="39" viewBox="0 0 89 39" fill="none" xmlns="http://www.w3.org/2000/svg">
<path d="M27.2433 21.3995C26.8619 21.4329 26.5131 21.4124 26.1969 21.3381C25.8809 21.2678 25.6039 21.1489 25.3657 20.9815C25.1237 20.8145 24.9311 20.6078 24.788 20.3615C24.6488 20.1149 24.5656 19.8359 24.5383 19.5246C24.5155 19.2639 24.5349 19.0152 24.5966 18.7784C24.6618 18.5375 24.7627 18.3247 24.8995 18.1402C25.0363 17.9557 25.2018 17.8079 25.396 17.6968C25.5898 17.5818 25.7996 17.5145 26.0253 17.4947C26.3055 17.4702 26.547 17.5197 26.75 17.6431C26.9529 17.7665 27.0884 17.9487 27.1566 18.1898C26.7402 18.2262 26.4191 18.3661 26.1934 18.6093C26.0858 18.7246 26.0056 18.861 25.9527 19.0186C25.9038 19.1758 25.8873 19.3458 25.9033 19.5287C25.9339 19.8789 26.0594 20.1483 26.2798 20.3369C26.5038 20.5212 26.7889 20.5982 27.1352 20.5679C27.3415 20.5498 27.5309 20.496 27.7034 20.4064C27.8756 20.3129 28.0221 20.1942 28.1428 20.0504C28.2635 19.9065 28.3509 19.74 28.405 19.551C28.4626 19.3577 28.4822 19.1561 28.4638 18.9459C28.4297 18.5568 28.262 18.1637 27.9606 17.7665C27.8413 17.6123 27.7106 17.463 27.5685 17.3185C27.4301 17.1699 27.2366 16.9751 26.988 16.7341C26.7653 16.5183 26.5783 16.3308 26.4271 16.1715C26.2759 16.0122 26.138 15.8478 26.0134 15.6783C25.711 15.2695 25.5416 14.8569 25.5052 14.4405C25.4779 14.1292 25.5189 13.8355 25.628 13.5593C25.7369 13.2792 25.9052 13.0292 26.133 12.8093C26.3608 12.5894 26.6333 12.4107 26.9507 12.2731C27.268 12.1355 27.6154 12.0503 27.9929 12.0172C28.635 11.9611 29.1638 12.0677 29.5795 12.3372C29.7793 12.4687 29.9368 12.6334 30.0521 12.8311C30.1713 13.0285 30.242 13.2537 30.2641 13.5066C30.2931 13.8374 30.2331 14.1151 30.0841 14.3399C30.0152 14.4479 29.9247 14.5342 29.8127 14.5989C29.7046 14.6633 29.5864 14.7011 29.458 14.7123C29.1583 14.7385 28.9042 14.6353 28.6956 14.4026C28.8379 14.2803 28.944 14.126 29.0139 13.9395C29.0874 13.7487 29.1151 13.5503 29.0971 13.344C29.0746 13.0872 28.981 12.8915 28.8163 12.7569C28.6513 12.6184 28.4365 12.5607 28.1719 12.5839C28.0123 12.5978 27.867 12.64 27.7359 12.7102C27.6087 12.7802 27.5032 12.8737 27.4193 12.9909C27.3316 13.1083 27.2669 13.2434 27.2254 13.396C27.1877 13.5483 27.1765 13.712 27.1919 13.8871C27.2137 14.1362 27.293 14.3704 27.4298 14.5898C27.5666 14.8092 27.7549 15.0338 27.9946 15.2638C28.2093 15.4764 28.4393 15.6856 28.6847 15.8916C29.2577 16.3904 29.6758 16.8891 29.939 17.3876C30.0944 17.6838 30.1882 18.0167 30.2205 18.3864C30.2546 18.7755 30.2065 19.1444 30.0762 19.493C29.9456 19.8377 29.7431 20.1456 29.4688 20.4167C29.1949 20.6916 28.8673 20.9143 28.4862 21.0849C28.1051 21.2555 27.6908 21.3604 27.2433 21.3995ZM33.8401 21.9752C33.6221 21.9943 33.4306 22.0012 33.2655 21.9961C33.1003 21.9909 32.9425 21.9577 32.7921 21.8963C32.3986 21.7464 32.1779 21.3972 32.1299 20.8485C32.1067 20.5839 32.1198 20.2631 32.1692 19.8863C32.2225 19.5091 32.3082 19.0997 32.4264 18.6581C32.6865 17.6864 33.0315 16.7445 33.4614 15.8325C33.0666 15.8906 32.7566 15.9784 32.5317 16.0962C32.3102 16.2096 32.1713 16.3688 32.1147 16.5738C32.1497 16.5707 32.1883 16.6085 32.2305 16.6872C32.2726 16.7658 32.2975 16.8479 32.305 16.9336C32.3172 17.0736 32.2629 17.1921 32.142 17.289C32.021 17.3858 31.8652 17.4426 31.6746 17.4593C31.4605 17.478 31.2803 17.4349 31.1339 17.3301C30.9794 17.2221 30.8922 17.0552 30.8725 16.8295C30.8551 16.631 30.8989 16.437 31.0039 16.2475C31.1085 16.054 31.266 15.8814 31.4762 15.7297C31.69 15.5738 31.9415 15.4459 32.2308 15.3461C32.5236 15.2421 32.8412 15.175 33.1837 15.1451C33.351 15.1304 33.5602 15.1239 33.8113 15.1255C34.3884 14.0123 34.9853 13.1269 35.6022 12.469C36.3196 11.7044 37.0051 11.2935 37.6589 11.2363C38.048 11.2022 38.3681 11.2311 38.6193 11.3228L37.5152 20.2832L35.7932 20.4339L36.3302 16.0167C36.0307 15.9096 35.7515 15.8341 35.4928 15.79C35.238 15.7457 34.9714 15.7239 34.6931 15.7247C34.3271 16.741 34.0448 17.7714 33.846 18.8162C33.6398 19.8655 33.5639 20.7015 33.6184 21.3241C33.6453 21.6315 33.7192 21.8485 33.8401 21.9752ZM36.8048 12.1638C36.4748 12.3809 36.1418 12.7649 35.8057 13.3159C35.4771 13.8622 35.1749 14.4866 34.8991 15.1891C35.4531 15.2465 35.9516 15.3421 36.3947 15.4759L36.8048 12.1638ZM41.3537 11.7188C40.8042 11.9826 40.3936 12.3537 40.1218 12.8324C39.8535 13.3068 39.7482 13.8728 39.8057 14.5304C39.8275 14.7795 39.8721 14.9756 39.9395 15.1187C39.9595 15.1679 39.9829 15.211 40.0096 15.2478C40.0276 15.2737 40.0377 15.3003 40.0401 15.3275C39.6082 15.3653 39.2855 15.3073 39.072 15.1534C38.8339 14.986 38.6966 14.6941 38.6602 14.2778C38.6374 14.017 38.6713 13.7553 38.762 13.4925C38.8524 13.2258 38.9904 12.9647 39.1758 12.7093C39.3507 12.4666 39.5638 12.2362 39.8153 12.0181C40.0703 11.7958 40.3491 11.5989 40.6517 11.4273C41.2871 11.0698 41.9316 10.8625 42.5854 10.8053C42.7644 10.7896 42.9246 10.7834 43.066 10.7867L43.8146 18.1323L45.69 10.5925L46.5247 10.5194L43.9827 19.7174L42.2607 19.868L41.3537 11.7188ZM48.7588 19.5172C48.3852 19.5498 48.0534 19.522 47.7633 19.4337C47.4736 19.3492 47.2285 19.2138 47.0279 19.0275C46.8361 18.8521 46.6844 18.6419 46.5727 18.3968C46.465 18.1513 46.3987 17.8866 46.3738 17.6025C46.3463 17.2873 46.3688 16.9618 46.4413 16.6261C46.5136 16.2865 46.6326 15.9663 46.7984 15.6655C46.9671 15.3528 47.1785 15.0794 47.4325 14.8454C47.6904 14.6111 47.9847 14.4344 48.3154 14.3153C48.0507 14.1581 47.8472 13.9602 47.7047 13.7217C47.5662 13.4829 47.4847 13.2234 47.4602 12.9432C47.4333 12.6358 47.4708 12.3247 47.5726 12.0099C47.678 11.6909 47.8367 11.3987 48.0488 11.1331C48.2676 10.8551 48.5302 10.6302 48.8367 10.4583C49.1468 10.2822 49.4866 10.1779 49.8563 10.1456C50.0937 10.1248 50.3203 10.1383 50.5363 10.1861C50.7518 10.23 50.941 10.3075 51.1036 10.4188C51.2744 10.5333 51.4108 10.6801 51.5127 10.8594C51.6147 11.0387 51.6762 11.249 51.6973 11.4903C51.7126 11.6654 51.7036 11.8309 51.6702 11.9867C51.6367 12.1426 51.5841 12.2805 51.5123 12.4005C51.4404 12.5205 51.3527 12.6164 51.2492 12.6882C51.1457 12.76 51.0356 12.801 50.9189 12.8112C50.7009 12.8303 50.5048 12.7396 50.3304 12.5392C50.3945 12.51 50.4566 12.4576 50.5166 12.3817C50.5763 12.302 50.627 12.2093 50.6687 12.1037C50.7069 12.0024 50.7347 11.8941 50.7521 11.7788C50.7694 11.6636 50.7735 11.5534 50.7643 11.4484C50.7446 11.2227 50.6613 11.0555 50.5146 10.9468C50.3932 10.8593 50.2372 10.824 50.0465 10.8407C49.8753 10.8556 49.7179 10.9165 49.5743 11.0231C49.4307 11.1298 49.3116 11.2696 49.2169 11.4426C49.1219 11.6117 49.0521 11.8001 49.0076 12.0079C48.9669 12.2154 48.9558 12.4242 48.9742 12.6343C49.0072 13.0118 49.129 13.3285 49.3396 13.5846C49.5685 13.8704 49.8961 14.0515 50.3224 14.128C49.9255 14.2529 49.57 14.4918 49.2558 14.8447C48.9742 15.1674 48.7583 15.5451 48.6079 15.9778C48.4615 16.4102 48.404 16.8073 48.4357 17.1692C48.4674 17.5311 48.58 17.8094 48.7734 18.0043C48.9884 18.2207 49.2886 18.3121 49.6738 18.2784C49.8645 18.2617 50.0627 18.2189 50.2684 18.1499C50.4777 18.0767 50.6751 17.981 50.8609 17.8628C51.2922 17.5937 51.5983 17.2611 51.7793 16.8649L52.0644 16.9635C51.8095 17.6798 51.3769 18.2706 50.7667 18.7357C50.4724 18.9575 50.1545 19.1343 49.8132 19.2661C49.4721 19.4018 49.1207 19.4855 48.7588 19.5172ZM55.7104 11.1745L54.5781 11.2735L54.6701 10.7126C55.1099 10.6741 55.5142 10.5897 55.8832 10.4594C56.4649 10.2517 57.0471 9.93606 57.6296 9.51259L56.509 18.6215L54.7871 18.7721L55.7104 11.1745ZM60.6351 18.3193C59.9269 18.3813 59.3729 18.2788 58.9731 18.0118C58.5772 17.7445 58.3547 17.3307 58.3057 16.7703C58.2842 16.5252 58.3015 16.2962 58.3574 16.0835C58.4133 15.8708 58.5046 15.6825 58.6314 15.5184C58.8886 15.1862 59.2468 14.9999 59.706 14.9598C60.1924 14.9172 60.4942 15.0947 60.6113 15.4923C60.2839 15.5601 60.0316 15.7018 59.8544 15.9173C59.6808 16.1285 59.6074 16.3879 59.6343 16.6953C59.6588 16.9755 59.7598 17.1882 59.9371 17.3334C60.1145 17.4787 60.3453 17.5389 60.6294 17.514C60.8589 17.4939 61.0664 17.4228 61.2518 17.3007C61.4407 17.1744 61.5964 17.004 61.7188 16.7893C61.8415 16.5786 61.9281 16.3358 61.9785 16.0608C62.0329 15.7855 62.0461 15.4883 62.0182 15.1692C61.9695 14.6127 61.8174 14.1967 61.5619 13.921C61.31 13.6411 60.9739 13.5196 60.5537 13.5563C60.3319 13.5757 60.0984 13.6413 59.8533 13.7529C59.6078 13.8606 59.3357 14.0217 59.0368 14.236L58.8632 14.1336L59.3955 9.52866C60.2452 9.56019 60.9172 9.55434 61.4114 9.5111C61.7694 9.47978 62.1135 9.42418 62.4438 9.34432C62.7775 9.26022 63.1182 9.14219 63.4656 8.99024C63.4917 9.10951 63.5111 9.24113 63.5237 9.38512C63.5594 9.79371 63.4867 10.1275 63.3054 10.3865C63.0997 10.6789 62.7555 10.8463 62.273 10.8885C62.0123 10.9113 61.6564 10.8993 61.2053 10.8525C61.0514 10.8425 60.8754 10.8245 60.6771 10.7987L60.2507 10.7655L59.9615 12.9729C60.4417 12.6799 60.925 12.5122 61.4114 12.4696C61.7305 12.4417 62.0254 12.4728 62.296 12.5628C62.5666 12.6528 62.8046 12.7967 63.0101 12.9944C63.2156 13.1921 63.3805 13.4404 63.5047 13.7393C63.6288 14.0382 63.7073 14.3744 63.74 14.748C63.7822 15.2305 63.7391 15.6794 63.6107 16.0945C63.4862 16.5092 63.2871 16.8776 63.0134 17.1996C62.7432 17.5173 62.4047 17.7724 61.9981 17.9648C61.5914 18.1572 61.1371 18.2754 60.6351 18.3193ZM65.7089 13.7229C64.7983 13.8026 64.2911 13.249 64.1873 12.0621C64.1478 11.6107 64.1708 11.1793 64.2564 10.7679C64.3458 10.3562 64.4903 9.99067 64.6898 9.67129C64.8854 9.35225 65.1237 9.09613 65.4048 8.90292C65.6859 8.70972 65.9938 8.59848 66.3285 8.5692C67.2546 8.48817 67.7698 9.04304 67.874 10.2338C67.9128 10.6774 67.8853 11.1033 67.7917 11.5115C67.7019 11.9193 67.5574 12.2848 67.3582 12.6081C67.1591 12.9314 66.9172 13.1917 66.6325 13.3892C66.3475 13.5827 66.0397 13.6939 65.7089 13.7229ZM70.0818 8.37611L70.9398 8.30104L66.7531 17.7252L65.895 17.8003L70.0818 8.37611ZM65.8353 13.2178C65.987 13.2045 66.1276 13.1079 66.2569 12.928C66.3898 12.7438 66.4998 12.4989 66.5867 12.1933C66.6737 11.8877 66.7315 11.5395 66.76 11.1488C66.7882 10.7542 66.7841 10.3488 66.7477 9.93238C66.7201 9.61718 66.673 9.39191 66.6062 9.25659C66.536 9.1255 66.4347 9.06574 66.3024 9.07731C66.1506 9.09059 66.0065 9.19143 65.87 9.37982C65.7375 9.56787 65.6238 9.81504 65.5291 10.1213C65.4343 10.4276 65.3661 10.7689 65.3245 11.145C65.2868 11.5208 65.2842 11.8936 65.3165 12.2633C65.3465 12.6057 65.4034 12.8536 65.4875 13.007C65.5676 13.1608 65.6835 13.231 65.8353 13.2178ZM70.5241 17.4659C69.6136 17.5456 69.1063 16.992 69.0025 15.8051C68.963 15.3537 68.9862 14.9242 69.0721 14.5168C69.1616 14.1051 69.3061 13.7395 69.5055 13.4201C69.7011 13.1011 69.9395 12.845 70.2206 12.6518C70.5017 12.4586 70.8096 12.3473 71.1442 12.318C72.0704 12.237 72.5854 12.7899 72.6892 13.9768C72.728 14.4204 72.7006 14.8463 72.6069 15.2545C72.5171 15.6623 72.3726 16.0278 72.1735 16.3511C71.9743 16.6744 71.7324 16.9347 71.4478 17.1322C71.1628 17.3257 70.8549 17.437 70.5241 17.4659ZM70.6505 16.9608C70.8023 16.9475 70.9428 16.8509 71.0722 16.671C71.2051 16.4868 71.315 16.2419 71.402 15.9363C71.489 15.6307 71.5467 15.2825 71.5753 14.8918C71.6038 14.5011 71.5999 14.0976 71.5635 13.6812C71.5359 13.366 71.4887 13.1408 71.422 13.0054C71.3517 12.8743 71.2504 12.8146 71.1181 12.8262C70.9197 12.8435 70.7325 13.0128 70.5567 13.334C70.3916 13.6426 70.2693 14.0376 70.1899 14.519C70.1079 15.0163 70.0885 15.512 70.1318 16.0063C70.1617 16.3487 70.2187 16.5966 70.3027 16.75C70.3828 16.9038 70.4988 16.974 70.6505 16.9608Z" fill="#5860A6"/>
<path d="M21 25.2227C18.1667 28.8893 10.2 36.2227 1 36.2227M1 36.2227L5 30.7227M1 36.2227C2.33333 36.8893 5.9 38.1227 9.5 37.7227" stroke="#5860A6" stroke-width="1.5" stroke-linecap="round" stroke-linejoin="round"/>
<path d="M29.4999 3.72262C39.4999 1.55596 63.1999 -1.27738 77.9999 4.72262C96.4999 12.2226 89.4999 26.7227 46.4999 27.2227C3.49986 27.7227 -5.50014 13.2226 33.9999 3.72262C65.5999 -3.87733 81.1666 6.22268 85 12.2227" stroke="#5860A6" stroke-width="1.5" stroke-linecap="round" stroke-linejoin="round"/>
</svg>
